<svg width="42" height="42" viewBox="0 0 42 42" fill="none" xmlns="http://www.w3.org/2000/svg">
<path d="M28.875 22.3125C28.875 24.9084 28.1052 27.446 26.663 29.6044C25.2209 31.7628 23.171 33.445 20.7727 34.4384C18.3744 35.4318 15.7354 35.6917 13.1894 35.1853C10.6434 34.6789 8.3048 33.4288 6.46923 31.5933C4.63367 29.7577 3.38363 27.4191 2.8772 24.8731C2.37077 22.3271 2.63069 19.6881 3.62409 17.2898C4.61749 14.8915 6.29975 12.8417 8.45815 11.3995C10.6165 9.95727 13.1541 9.1875 15.75 9.1875H23.8639L19.1599 13.8928L21 15.75L28.875 7.875L21 0L19.1599 1.85588L23.8678 6.5625H15.75C12.635 6.5625 9.58985 7.48622 6.99978 9.21685C4.4097 10.9475 2.39098 13.4073 1.1989 16.2852C0.00682425 19.1632 -0.305078 22.33 0.302639 25.3852C0.910356 28.4404 2.4104 31.2468 4.61308 33.4494C6.81575 35.6521 9.62213 37.1521 12.6773 37.7599C15.7325 38.3676 18.8993 38.0557 21.7773 36.8636C24.6552 35.6715 27.115 33.6528 28.8457 31.0627C30.5763 28.4727 31.5 25.4276 31.5 22.3125H28.875Z" fill="black"/>
</svg>
