<svg width="48" height="48" viewBox="0 0 48 48" fill="none" xmlns="http://www.w3.org/2000/svg">
<path fill-rule="evenodd" clip-rule="evenodd" d="M17.6 6.40002C18.0244 6.40002 18.4313 6.5686 18.7314 6.86865C19.0315 7.16871 19.2 7.57568 19.2 8.00002V17.6C19.2 18.0244 19.0315 18.4313 18.7314 18.7314C18.4313 19.0315 18.0244 19.2 17.6 19.2H8.00002C7.57568 19.2 7.16871 19.0315 6.86865 18.7314C6.5686 18.4313 6.40002 18.0244 6.40002 17.6C6.40002 17.1757 6.5686 16.7687 6.86865 16.4687C7.16871 16.1686 7.57568 16 8.00002 16H16V8.00002C16 7.57568 16.1686 7.16871 16.4687 6.86865C16.7687 6.5686 17.1757 6.40002 17.6 6.40002V6.40002ZM30.4 6.40002C30.8244 6.40002 31.2313 6.5686 31.5314 6.86865C31.8315 7.16871 32 7.57568 32 8.00002V16H40C40.4244 16 40.8313 16.1686 41.1314 16.4687C41.4315 16.7687 41.6 17.1757 41.6 17.6C41.6 18.0244 41.4315 18.4313 41.1314 18.7314C40.8313 19.0315 40.4244 19.2 40 19.2H30.4C29.9757 19.2 29.5687 19.0315 29.2687 18.7314C28.9686 18.4313 28.8 18.0244 28.8 17.6V8.00002C28.8 7.57568 28.9686 7.16871 29.2687 6.86865C29.5687 6.5686 29.9757 6.40002 30.4 6.40002V6.40002ZM6.40002 30.4C6.40002 29.9757 6.5686 29.5687 6.86865 29.2686C7.16871 28.9686 7.57568 28.8 8.00002 28.8H17.6C18.0244 28.8 18.4313 28.9686 18.7314 29.2686C19.0315 29.5687 19.2 29.9757 19.2 30.4V40C19.2 40.4244 19.0315 40.8313 18.7314 41.1314C18.4313 41.4314 18.0244 41.6 17.6 41.6C17.1757 41.6 16.7687 41.4314 16.4687 41.1314C16.1686 40.8313 16 40.4244 16 40V32H8.00002C7.57568 32 7.16871 31.8314 6.86865 31.5314C6.5686 31.2313 6.40002 30.8244 6.40002 30.4ZM28.8 30.4C28.8 29.9757 28.9686 29.5687 29.2687 29.2686C29.5687 28.9686 29.9757 28.8 30.4 28.8H40C40.4244 28.8 40.8313 28.9686 41.1314 29.2686C41.4315 29.5687 41.6 29.9757 41.6 30.4C41.6 30.8244 41.4315 31.2313 41.1314 31.5314C40.8313 31.8314 40.4244 32 40 32H32V40C32 40.4244 31.8315 40.8313 31.5314 41.1314C31.2313 41.4314 30.8244 41.6 30.4 41.6C29.9757 41.6 29.5687 41.4314 29.2687 41.1314C28.9686 40.8313 28.8 40.4244 28.8 40V30.4Z" fill="black"/>
</svg>
