<svg width="48" height="48" viewBox="0 0 48 48" fill="none" xmlns="http://www.w3.org/2000/svg">
<path fill-rule="evenodd" clip-rule="evenodd" d="M24 3.00013C19.0145 3.0008 14.1917 4.7752 10.3946 8.00592C6.59741 11.2366 4.07353 15.7129 3.27439 20.634C2.47525 25.5551 3.45299 30.6001 6.03271 34.8663C8.61244 39.1326 12.6259 42.3419 17.355 43.9201C18.405 44.1151 18.855 43.4701 18.855 42.9151V39.3451C13.02 40.6051 11.79 36.5251 11.79 36.5251C11.3797 35.2394 10.5161 34.1465 9.36003 33.4501C7.45503 32.1601 9.51003 32.1751 9.51003 32.1751C10.1754 32.2691 10.8106 32.514 11.3669 32.8909C11.9232 33.2679 12.3861 33.767 12.72 34.3501C13.301 35.3922 14.2721 36.1609 15.4198 36.4872C16.5674 36.8135 17.7977 36.6707 18.84 36.0901C18.9247 35.0258 19.3939 34.0288 20.16 33.2851C15.51 32.7451 10.605 30.9451 10.605 22.9051C10.571 20.817 11.3449 18.7964 12.765 17.2651C12.1222 15.4564 12.1974 13.4701 12.975 11.7151C12.975 11.7151 14.73 11.1451 18.75 13.8601C22.1872 12.9225 25.8128 12.9225 29.25 13.8601C33.255 11.1451 35.01 11.7151 35.01 11.7151C35.7877 13.4701 35.8628 15.4564 35.22 17.2651C36.6402 18.7964 37.414 20.817 37.38 22.9051C37.38 30.9751 32.475 32.7451 27.795 33.2701C28.2964 33.7783 28.6829 34.388 28.9288 35.0581C29.1746 35.7283 29.2739 36.4433 29.22 37.1551V42.9151C29.22 43.6051 29.595 44.1301 30.72 43.9201C35.4554 42.3399 39.473 39.1244 42.0523 34.8503C44.6316 30.5762 45.604 25.523 44.795 20.5969C43.986 15.6708 41.4486 11.194 37.6378 7.96928C33.827 4.74457 28.9921 2.98288 24 3.00013V3.00013Z" fill="white"/>
</svg>
