<svg width="38" height="38" viewBox="0 0 38 38" fill="none" xmlns="http://www.w3.org/2000/svg">
<path d="M10 0C4.47715 0 0 4.47715 0 10V28C0 33.5228 4.47715 38 10 38H28C33.5228 38 38 33.5228 38 28V10C38 4.47715 33.5228 0 28 0H10ZM11.123 8.91812C11.1219 7.4907 12.2787 6.33294 13.7061 6.33294V6.33294C15.6417 6.33294 16.3044 6.37569 16.3471 6.51225C16.378 6.61794 16.397 8.67706 16.397 11.1019L16.3878 14.5019C16.3868 14.889 16.8446 15.0946 17.1333 14.8366V14.8366C18.1783 13.9151 19.057 13.5933 20.7207 13.5316C21.8156 13.5007 22.2609 13.5434 23.028 13.8166C24.7107 14.3794 25.8982 15.5361 26.5169 17.2425C26.7579 17.9111 26.7888 18.6093 26.8328 24.0279L26.8608 27.4282C26.8728 28.8908 25.6905 30.0829 24.2278 30.0829V30.0829C22.7736 30.0829 21.5947 28.9041 21.5947 27.4499V25.1418C21.5947 20.2742 21.5828 20.2124 21.2551 19.6187C20.7908 18.8337 20.2896 18.4739 19.4988 18.3884C18.1509 18.24 17.2164 18.6972 16.6844 19.7992C16.4303 20.3063 16.3994 20.8382 16.3875 25.1121C16.3752 26.7968 16.358 28.3064 16.3474 29.1801C16.341 29.7051 16.0842 30.0325 15.5597 30.0546C15.0858 30.0746 14.4353 30.0853 13.7216 30.0853V30.0853C12.2905 30.0853 11.1304 28.9252 11.1304 27.4942V18.2103L11.123 8.91812Z" fill="white"/>
</svg>
