<svg width="38" height="38" viewBox="0 0 38 38" fill="none" xmlns="http://www.w3.org/2000/svg">
<g clip-path="url(#clip0)">
<path d="M24.832 0H13.1672C2.52246 0 -0.000976562 2.52344 -0.000976562 13.1682V24.833C-0.000976562 35.4778 2.52246 38.0012 13.1672 38.0012H24.832C35.4768 38.0012 38.0002 35.4778 38.0002 24.833V13.1682C38.0002 2.52344 35.4518 0 24.832 0ZM30.6769 27.1082H27.9183C26.8733 27.1082 26.5515 26.2794 24.6717 24.3746C23.0389 22.7917 22.3157 22.5815 21.9131 22.5815C21.3443 22.5815 21.1828 22.7418 21.1828 23.522V26.0146C21.1828 26.6831 20.9726 27.0845 19.2033 27.0845C16.2773 27.0845 13.0306 25.3151 10.7542 22.0186C7.32115 17.1879 6.38184 13.5696 6.38184 12.8214C6.38184 12.4189 6.54215 12.0424 7.31521 12.0424H10.0797C10.7791 12.0424 11.0451 12.3642 11.3171 13.1124C12.6839 17.0584 14.9603 20.5152 15.8996 20.5152C16.2464 20.5152 16.4067 20.3549 16.4067 19.4702V15.3947C16.301 13.5149 15.3118 13.3534 15.3118 12.6861C15.3118 12.3642 15.5778 12.0424 16.0041 12.0424H20.3516C20.9394 12.0424 21.1555 12.3642 21.1555 13.0566V18.5547C21.1555 19.1484 21.4215 19.3586 21.5818 19.3586C21.9286 19.3586 22.2255 19.1484 22.8679 18.5048C24.8534 16.2783 26.276 12.8452 26.276 12.8452C26.4613 12.4426 26.7831 12.0662 27.4825 12.0662H30.247C31.0759 12.0662 31.2611 12.4925 31.0759 13.0863C30.7291 14.6941 27.346 19.4691 27.346 19.4691C27.055 19.9512 26.9434 20.1614 27.346 20.6993C27.6428 21.1019 28.6083 21.9367 29.2507 22.6848C30.4323 24.0267 31.3407 25.1524 31.583 25.9314C31.8549 26.7045 31.4535 27.1071 30.6733 27.1071L30.6769 27.1082Z" fill="white"/>
</g>
<defs>
<clipPath id="clip0">
<rect width="38" height="38" fill="white"/>
</clipPath>
</defs>
</svg>
